<?xml version="1.0" encoding="UTF-8" standalone="no"?>
<!DOCTYPE svg PUBLIC "-//W3C//DTD SVG 1.1//EN"
 "http://www.w3.org/Graphics/SVG/1.1/DTD/svg11.dtd">
<!-- Generated by graphviz version 12.0.0 (20240704.0754)
 -->
<!-- Title: workflow Pages: 1 -->
<svg width="1214pt" height="270pt"
 viewBox="0.00 0.00 1213.57 270.46" xmlns="http://www.w3.org/2000/svg" xmlns:xlink="http://www.w3.org/1999/xlink">
<g id="graph0" class="graph" transform="scale(1 1) rotate(0) translate(4 266.46)">
<title>workflow</title>
<polygon fill="white" stroke="none" points="-4,4 -4,-266.46 1209.57,-266.46 1209.57,4 -4,4"/>
<!-- place_088e29b0ab0079560dea5d3e5aeb2f7868af661e -->
<g id="node1" class="node">
<title>place_088e29b0ab0079560dea5d3e5aeb2f7868af661e</title>
<ellipse fill="lightblue" stroke="#333333" cx="36" cy="-132.79" rx="36" ry="36"/>
<text text-anchor="middle" x="36" y="-129.86" font-family="Arial" font-size="9.00">request</text>
</g>
<!-- transition_b6589fc6ab0dc82cf12099d1c2d40ab994e8410c -->
<g id="node9" class="node">
<title>transition_b6589fc6ab0dc82cf12099d1c2d40ab994e8410c</title>
<polygon fill="none" stroke="#333333" points="180,-168.79 108,-168.79 108,-96.79 180,-96.79 180,-168.79"/>
<text text-anchor="middle" x="144" y="-129.86" font-family="Arial" font-size="9.00">to_pending</text>
</g>
<!-- place_088e29b0ab0079560dea5d3e5aeb2f7868af661e&#45;&gt;transition_b6589fc6ab0dc82cf12099d1c2d40ab994e8410c -->
<g id="edge1" class="edge">
<title>place_088e29b0ab0079560dea5d3e5aeb2f7868af661e&#45;&gt;transition_b6589fc6ab0dc82cf12099d1c2d40ab994e8410c</title>
<path fill="none" stroke="#333333" d="M72.3,-132.79C81.68,-132.79 91.91,-132.79 101.59,-132.79"/>
<polygon fill="#333333" stroke="#333333" points="101.34,-134.54 106.34,-132.79 101.34,-131.04 101.34,-134.54"/>
</g>
<!-- place_b418c9e086c574f35f246a7a974481334c7d0d3d -->
<g id="node2" class="node">
<title>place_b418c9e086c574f35f246a7a974481334c7d0d3d</title>
<ellipse fill="none" stroke="#333333" cx="278.79" cy="-202.79" rx="59.67" ry="59.67"/>
<text text-anchor="middle" x="278.79" y="-199.86" font-family="Arial" font-size="9.00">dad_validation_pending</text>
</g>
<!-- transition_356a192b7913b04c54574d18c28d46e6395428ab -->
<g id="node10" class="node">
<title>transition_356a192b7913b04c54574d18c28d46e6395428ab</title>
<polygon fill="none" stroke="#333333" points="449.57,-234.79 377.57,-234.79 377.57,-162.79 449.57,-162.79 449.57,-234.79"/>
<text text-anchor="middle" x="413.57" y="-195.86" font-family="Arial" font-size="9.00">to_dad_ok</text>
</g>
<!-- place_b418c9e086c574f35f246a7a974481334c7d0d3d&#45;&gt;transition_356a192b7913b04c54574d18c28d46e6395428ab -->
<g id="edge4" class="edge">
<title>place_b418c9e086c574f35f246a7a974481334c7d0d3d&#45;&gt;transition_356a192b7913b04c54574d18c28d46e6395428ab</title>
<path fill="none" stroke="#333333" d="M338.8,-201.01C349.7,-200.68 360.87,-200.34 371.11,-200.03"/>
<polygon fill="#333333" stroke="#333333" points="370.9,-201.79 375.84,-199.89 370.79,-198.29 370.9,-201.79"/>
</g>
<!-- place_a001371bbb35bd4968b403cffc36142854d68c0a -->
<g id="node3" class="node">
<title>place_a001371bbb35bd4968b403cffc36142854d68c0a</title>
<ellipse fill="none" stroke="#333333" cx="521.57" cy="-195.79" rx="36" ry="36"/>
<text text-anchor="middle" x="521.57" y="-192.86" font-family="Arial" font-size="9.00">dad_ok</text>
</g>
<!-- transition_77de68daecd823babbb58edb1c8e14d7106e83bb -->
<g id="node12" class="node">
<title>transition_77de68daecd823babbb58edb1c8e14d7106e83bb</title>
<polygon fill="none" stroke="#333333" points="665.57,-180.79 593.57,-180.79 593.57,-108.79 665.57,-108.79 665.57,-180.79"/>
<text text-anchor="middle" x="629.57" y="-141.86" font-family="Arial" font-size="9.00">to_order</text>
</g>
<!-- place_a001371bbb35bd4968b403cffc36142854d68c0a&#45;&gt;transition_77de68daecd823babbb58edb1c8e14d7106e83bb -->
<g id="edge8" class="edge">
<title>place_a001371bbb35bd4968b403cffc36142854d68c0a&#45;&gt;transition_77de68daecd823babbb58edb1c8e14d7106e83bb</title>
<path fill="none" stroke="#333333" d="M554.37,-180.48C564.76,-175.49 576.45,-169.86 587.42,-164.59"/>
<polygon fill="#333333" stroke="#333333" points="587.97,-166.26 591.72,-162.52 586.45,-163.11 587.97,-166.26"/>
</g>
<!-- place_3dbf212e6b360e5f16fa0eb481ab90db0cf6023b -->
<g id="node4" class="node">
<title>place_3dbf212e6b360e5f16fa0eb481ab90db0cf6023b</title>
<ellipse fill="none" stroke="#333333" cx="278.79" cy="-62.79" rx="62.79" ry="62.79"/>
<text text-anchor="middle" x="278.79" y="-59.86" font-family="Arial" font-size="9.00">mum_validation_pending</text>
</g>
<!-- transition_da4b9237bacccdf19c0760cab7aec4a8359010b0 -->
<g id="node11" class="node">
<title>transition_da4b9237bacccdf19c0760cab7aec4a8359010b0</title>
<polygon fill="none" stroke="#333333" points="449.57,-123.79 377.57,-123.79 377.57,-51.79 449.57,-51.79 449.57,-123.79"/>
<text text-anchor="middle" x="413.57" y="-84.86" font-family="Arial" font-size="9.00">to_mum_ok</text>
</g>
<!-- place_3dbf212e6b360e5f16fa0eb481ab90db0cf6023b&#45;&gt;transition_da4b9237bacccdf19c0760cab7aec4a8359010b0 -->
<g id="edge6" class="edge">
<title>place_3dbf212e6b360e5f16fa0eb481ab90db0cf6023b&#45;&gt;transition_da4b9237bacccdf19c0760cab7aec4a8359010b0</title>
<path fill="none" stroke="#333333" d="M340.74,-74.26C351.03,-76.2 361.49,-78.17 371.14,-79.98"/>
<polygon fill="#333333" stroke="#333333" points="370.62,-81.67 375.86,-80.87 371.27,-78.23 370.62,-81.67"/>
</g>
<!-- place_14c409d7e650289d1f444d5b375f78c903482921 -->
<g id="node5" class="node">
<title>place_14c409d7e650289d1f444d5b375f78c903482921</title>
<ellipse fill="none" stroke="#333333" cx="521.57" cy="-99.79" rx="36" ry="36"/>
<text text-anchor="middle" x="521.57" y="-96.86" font-family="Arial" font-size="9.00">mum_ok</text>
</g>
<!-- place_14c409d7e650289d1f444d5b375f78c903482921&#45;&gt;transition_77de68daecd823babbb58edb1c8e14d7106e83bb -->
<g id="edge9" class="edge">
<title>place_14c409d7e650289d1f444d5b375f78c903482921&#45;&gt;transition_77de68daecd823babbb58edb1c8e14d7106e83bb</title>
<path fill="none" stroke="#333333" d="M555.24,-113.65C565.4,-117.97 576.74,-122.78 587.4,-127.31"/>
<polygon fill="#333333" stroke="#333333" points="586.57,-128.86 591.86,-129.2 587.94,-125.63 586.57,-128.86"/>
</g>
<!-- place_cce55e4309a753985bdd21919395fdc17daa11e4 -->
<g id="node6" class="node">
<title>place_cce55e4309a753985bdd21919395fdc17daa11e4</title>
<ellipse fill="none" stroke="#333333" cx="737.57" cy="-144.79" rx="36" ry="36"/>
<text text-anchor="middle" x="737.57" y="-141.86" font-family="Arial" font-size="9.00">order</text>
</g>
<!-- transition_1b6453892473a467d07372d45eb05abc2031647a -->
<g id="node13" class="node">
<title>transition_1b6453892473a467d07372d45eb05abc2031647a</title>
<polygon fill="none" stroke="#333333" points="881.57,-180.79 809.57,-180.79 809.57,-108.79 881.57,-108.79 881.57,-180.79"/>
<text text-anchor="middle" x="845.57" y="-141.86" font-family="Arial" font-size="9.00">to_ordered</text>
</g>
<!-- place_cce55e4309a753985bdd21919395fdc17daa11e4&#45;&gt;transition_1b6453892473a467d07372d45eb05abc2031647a -->
<g id="edge11" class="edge">
<title>place_cce55e4309a753985bdd21919395fdc17daa11e4&#45;&gt;transition_1b6453892473a467d07372d45eb05abc2031647a</title>
<path fill="none" stroke="#333333" d="M773.87,-144.79C783.25,-144.79 793.48,-144.79 803.16,-144.79"/>
<polygon fill="#333333" stroke="#333333" points="802.92,-146.54 807.92,-144.79 802.92,-143.04 802.92,-146.54"/>
</g>
<!-- place_2f6d3eca5a849f14e9764ff9a4a76e9f53e690a8 -->
<g id="node7" class="node">
<title>place_2f6d3eca5a849f14e9764ff9a4a76e9f53e690a8</title>
<ellipse fill="none" stroke="#333333" cx="953.57" cy="-144.79" rx="36" ry="36"/>
<text text-anchor="middle" x="953.57" y="-141.86" font-family="Arial" font-size="9.00">ordered</text>
</g>
<!-- transition_ac3478d69a3c81fa62e60f5c3696165a4e5e6ac4 -->
<g id="node14" class="node">
<title>transition_ac3478d69a3c81fa62e60f5c3696165a4e5e6ac4</title>
<polygon fill="none" stroke="#333333" points="1097.57,-180.79 1025.57,-180.79 1025.57,-108.79 1097.57,-108.79 1097.57,-180.79"/>
<text text-anchor="middle" x="1061.57" y="-141.86" font-family="Arial" font-size="9.00">to_received</text>
</g>
<!-- place_2f6d3eca5a849f14e9764ff9a4a76e9f53e690a8&#45;&gt;transition_ac3478d69a3c81fa62e60f5c3696165a4e5e6ac4 -->
<g id="edge13" class="edge">
<title>place_2f6d3eca5a849f14e9764ff9a4a76e9f53e690a8&#45;&gt;transition_ac3478d69a3c81fa62e60f5c3696165a4e5e6ac4</title>
<path fill="none" stroke="#333333" d="M989.87,-144.79C999.25,-144.79 1009.48,-144.79 1019.16,-144.79"/>
<polygon fill="#333333" stroke="#333333" points="1018.92,-146.54 1023.92,-144.79 1018.92,-143.04 1018.92,-146.54"/>
</g>
<!-- place_38428a698ab1222540680e7ab78e1d739e9afd1c -->
<g id="node8" class="node">
<title>place_38428a698ab1222540680e7ab78e1d739e9afd1c</title>
<ellipse fill="none" stroke="#333333" cx="1169.57" cy="-144.79" rx="36" ry="36"/>
<text text-anchor="middle" x="1169.57" y="-141.86" font-family="Arial" font-size="9.00">received</text>
</g>
<!-- transition_b6589fc6ab0dc82cf12099d1c2d40ab994e8410c&#45;&gt;place_b418c9e086c574f35f246a7a974481334c7d0d3d -->
<g id="edge2" class="edge">
<title>transition_b6589fc6ab0dc82cf12099d1c2d40ab994e8410c&#45;&gt;place_b418c9e086c574f35f246a7a974481334c7d0d3d</title>
<path fill="none" stroke="#333333" d="M180.24,-151.36C192.34,-157.74 206.22,-165.06 219.65,-172.14"/>
<polygon fill="#333333" stroke="#333333" points="218.8,-173.67 224.03,-174.45 220.43,-170.57 218.8,-173.67"/>
</g>
<!-- transition_b6589fc6ab0dc82cf12099d1c2d40ab994e8410c&#45;&gt;place_3dbf212e6b360e5f16fa0eb481ab90db0cf6023b -->
<g id="edge3" class="edge">
<title>transition_b6589fc6ab0dc82cf12099d1c2d40ab994e8410c&#45;&gt;place_3dbf212e6b360e5f16fa0eb481ab90db0cf6023b</title>
<path fill="none" stroke="#333333" d="M180.24,-114.21C191.66,-108.19 204.69,-101.32 217.41,-94.61"/>
<polygon fill="#333333" stroke="#333333" points="217.89,-96.34 221.5,-92.46 216.26,-93.24 217.89,-96.34"/>
</g>
<!-- transition_356a192b7913b04c54574d18c28d46e6395428ab&#45;&gt;place_a001371bbb35bd4968b403cffc36142854d68c0a -->
<g id="edge5" class="edge">
<title>transition_356a192b7913b04c54574d18c28d46e6395428ab&#45;&gt;place_a001371bbb35bd4968b403cffc36142854d68c0a</title>
<path fill="none" stroke="#333333" d="M449.87,-197.79C459.25,-197.52 469.48,-197.23 479.16,-196.96"/>
<polygon fill="#333333" stroke="#333333" points="478.97,-198.71 483.92,-196.82 478.87,-195.22 478.97,-198.71"/>
</g>
<!-- transition_da4b9237bacccdf19c0760cab7aec4a8359010b0&#45;&gt;place_14c409d7e650289d1f444d5b375f78c903482921 -->
<g id="edge7" class="edge">
<title>transition_da4b9237bacccdf19c0760cab7aec4a8359010b0&#45;&gt;place_14c409d7e650289d1f444d5b375f78c903482921</title>
<path fill="none" stroke="#333333" d="M449.87,-91.78C459.25,-92.84 469.48,-94 479.16,-95.1"/>
<polygon fill="#333333" stroke="#333333" points="478.76,-96.81 483.92,-95.64 479.15,-93.34 478.76,-96.81"/>
</g>
<!-- transition_77de68daecd823babbb58edb1c8e14d7106e83bb&#45;&gt;place_cce55e4309a753985bdd21919395fdc17daa11e4 -->
<g id="edge10" class="edge">
<title>transition_77de68daecd823babbb58edb1c8e14d7106e83bb&#45;&gt;place_cce55e4309a753985bdd21919395fdc17daa11e4</title>
<path fill="none" stroke="#333333" d="M665.87,-144.79C675.25,-144.79 685.48,-144.79 695.16,-144.79"/>
<polygon fill="#333333" stroke="#333333" points="694.92,-146.54 699.92,-144.79 694.92,-143.04 694.92,-146.54"/>
</g>
<!-- transition_1b6453892473a467d07372d45eb05abc2031647a&#45;&gt;place_2f6d3eca5a849f14e9764ff9a4a76e9f53e690a8 -->
<g id="edge12" class="edge">
<title>transition_1b6453892473a467d07372d45eb05abc2031647a&#45;&gt;place_2f6d3eca5a849f14e9764ff9a4a76e9f53e690a8</title>
<path fill="none" stroke="#333333" d="M881.87,-144.79C891.25,-144.79 901.48,-144.79 911.16,-144.79"/>
<polygon fill="#333333" stroke="#333333" points="910.92,-146.54 915.92,-144.79 910.92,-143.04 910.92,-146.54"/>
</g>
<!-- transition_ac3478d69a3c81fa62e60f5c3696165a4e5e6ac4&#45;&gt;place_38428a698ab1222540680e7ab78e1d739e9afd1c -->
<g id="edge14" class="edge">
<title>transition_ac3478d69a3c81fa62e60f5c3696165a4e5e6ac4&#45;&gt;place_38428a698ab1222540680e7ab78e1d739e9afd1c</title>
<path fill="none" stroke="#333333" d="M1097.87,-144.79C1107.25,-144.79 1117.48,-144.79 1127.16,-144.79"/>
<polygon fill="#333333" stroke="#333333" points="1126.92,-146.54 1131.92,-144.79 1126.92,-143.04 1126.92,-146.54"/>
</g>
</g>
</svg>
